<svg xmlns="http://www.w3.org/2000/svg" viewBox="0 0 1600 500" width="1600" height="500">
  <defs>
    <linearGradient id="g-physio" x1="0%" y1="0%" x2="100%" y2="100%">
      <stop offset="0%" stop-color="#7C1B44"/>
      <stop offset="100%" stop-color="#5C1332"/>
    </linearGradient>
    <pattern id="dots-g-physio" width="34" height="34" patternUnits="userSpaceOnUse">
      <circle cx="4" cy="4" r="1.6" fill="#ffffff" opacity="0.10"/>
    </pattern>
  </defs>
  <rect width="1600" height="500" fill="url(#g-physio)"/>
  <rect width="1600" height="500" fill="url(#dots-g-physio)"/>
  <circle cx="550.0" cy="336.4" r="3.2" fill="#ffffff" opacity="0.24"/>
<circle cx="261.8" cy="35.0" r="3.2" fill="#ffffff" opacity="0.23"/>
<circle cx="960.3" cy="324.8" r="3.2" fill="#ffffff" opacity="0.15"/>
<circle cx="415.6" cy="190.5" r="3.2" fill="#ffffff" opacity="0.25"/>
<circle cx="1088.2" cy="-53.4" r="3.2" fill="#ffffff" opacity="0.25"/>
<circle cx="1040.7" cy="244.4" r="3.2" fill="#ffffff" opacity="0.15"/>
<circle cx="769.6" cy="390.8" r="3.2" fill="#ffffff" opacity="0.15"/>
<circle cx="946.2" cy="-340.4" r="3.2" fill="#ffffff" opacity="0.15"/>
<circle cx="785.9" cy="400.5" r="3.2" fill="#ffffff" opacity="0.15"/>
<circle cx="931.8" cy="344.4" r="3.2" fill="#ffffff" opacity="0.15"/>
<circle cx="793.0" cy="-120.6" r="3.2" fill="#ffffff" opacity="0.15"/>
<circle cx="985.0" cy="341.8" r="3.2" fill="#ffffff" opacity="0.15"/>
<circle cx="1264.4" cy="572.3" r="3.2" fill="#ffffff" opacity="0.24"/>
<circle cx="743.6" cy="-99.2" r="3.2" fill="#ffffff" opacity="0.21"/>
<circle cx="1162.8" cy="409.7" r="3.2" fill="#ffffff" opacity="0.15"/>
<circle cx="431.6" cy="473.9" r="3.2" fill="#ffffff" opacity="0.15"/>
<circle cx="445.0" cy="705.4" r="3.2" fill="#ffffff" opacity="0.15"/>
<circle cx="695.5" cy="376.6" r="3.2" fill="#ffffff" opacity="0.17"/>
<circle cx="905.6" cy="-324.6" r="3.2" fill="#ffffff" opacity="0.27"/>
<circle cx="478.8" cy="560.9" r="3.2" fill="#ffffff" opacity="0.15"/>
<circle cx="764.0" cy="400.6" r="3.2" fill="#ffffff" opacity="0.22"/>
<circle cx="1268.1" cy="417.3" r="3.2" fill="#ffffff" opacity="0.2"/><g transform="translate(800.0,260.0) scale(1.5)" fill="none" stroke="#ffffff" stroke-width="6" stroke-linecap="round" stroke-linejoin="round" opacity="0.95">
      <path d="M -70 10 C -50 -18, -10 -18, 10 10" />
      <path d="M -70 10 L -70 34 C -70 44, -60 44, -60 34 L -60 6" />
      <path d="M -60 6 L -60 40 C -60 50, -50 50, -50 40 L -50 4" />
      <path d="M -50 4 L -50 38 C -50 48, -40 48, -40 38 L -40 8" />
      <path d="M -40 8 L -40 30 C -40 40, -30 40, -30 30 L -30 14" />
      <circle cx="46" cy="6" r="30" fill="#ffffff" stroke="none" opacity="0.18"/>
      <path d="M 22 6 C 30 -10, 62 -10, 70 6" />
    </g>
  <g opacity="0.92">
    <rect x="640.0" y="436" width="320" height="34" rx="17" fill="#00000022"/>
    <text x="800.0" y="459" text-anchor="middle" font-family="-apple-system,Helvetica,Arial,sans-serif" font-size="14" font-weight="600" fill="#ffffff" letter-spacing="0.3">FOTO PLATZHALTER · Physiotherapie</text>
  </g>
</svg>