<svg xmlns="http://www.w3.org/2000/svg" viewBox="0 0 1600 500" width="1600" height="500">
  <defs>
    <linearGradient id="g-wellness" x1="0%" y1="0%" x2="100%" y2="100%">
      <stop offset="0%" stop-color="#C4487F"/>
      <stop offset="100%" stop-color="#7C1B44"/>
    </linearGradient>
    <pattern id="dots-g-wellness" width="34" height="34" patternUnits="userSpaceOnUse">
      <circle cx="4" cy="4" r="1.6" fill="#ffffff" opacity="0.10"/>
    </pattern>
  </defs>
  <rect width="1600" height="500" fill="url(#g-wellness)"/>
  <rect width="1600" height="500" fill="url(#dots-g-wellness)"/>
  <circle cx="550.0" cy="336.4" r="3.2" fill="#ffffff" opacity="0.24"/>
<circle cx="261.8" cy="35.0" r="3.2" fill="#ffffff" opacity="0.23"/>
<circle cx="960.3" cy="324.8" r="3.2" fill="#ffffff" opacity="0.15"/>
<circle cx="415.6" cy="190.5" r="3.2" fill="#ffffff" opacity="0.25"/>
<circle cx="1088.2" cy="-53.4" r="3.2" fill="#ffffff" opacity="0.25"/>
<circle cx="1040.7" cy="244.4" r="3.2" fill="#ffffff" opacity="0.15"/>
<circle cx="769.6" cy="390.8" r="3.2" fill="#ffffff" opacity="0.15"/>
<circle cx="946.2" cy="-340.4" r="3.2" fill="#ffffff" opacity="0.15"/>
<circle cx="785.9" cy="400.5" r="3.2" fill="#ffffff" opacity="0.15"/>
<circle cx="931.8" cy="344.4" r="3.2" fill="#ffffff" opacity="0.15"/>
<circle cx="793.0" cy="-120.6" r="3.2" fill="#ffffff" opacity="0.15"/>
<circle cx="985.0" cy="341.8" r="3.2" fill="#ffffff" opacity="0.15"/>
<circle cx="1264.4" cy="572.3" r="3.2" fill="#ffffff" opacity="0.24"/>
<circle cx="743.6" cy="-99.2" r="3.2" fill="#ffffff" opacity="0.21"/>
<circle cx="1162.8" cy="409.7" r="3.2" fill="#ffffff" opacity="0.15"/>
<circle cx="431.6" cy="473.9" r="3.2" fill="#ffffff" opacity="0.15"/>
<circle cx="445.0" cy="705.4" r="3.2" fill="#ffffff" opacity="0.15"/>
<circle cx="695.5" cy="376.6" r="3.2" fill="#ffffff" opacity="0.17"/>
<circle cx="905.6" cy="-324.6" r="3.2" fill="#ffffff" opacity="0.27"/>
<circle cx="478.8" cy="560.9" r="3.2" fill="#ffffff" opacity="0.15"/>
<circle cx="764.0" cy="400.6" r="3.2" fill="#ffffff" opacity="0.22"/>
<circle cx="1268.1" cy="417.3" r="3.2" fill="#ffffff" opacity="0.2"/><g transform="translate(800.0,280.0) scale(1.7)"><ellipse cx="0" cy="0" rx="46" ry="20" fill="#ffffff" opacity="0.95"/><ellipse cx="2" cy="-24" rx="38" ry="17" fill="#ffffff" opacity="0.95"/><ellipse cx="-3" cy="-44" rx="28" ry="13" fill="#ffffff" opacity="0.95"/></g>
  <g opacity="0.92">
    <rect x="640.0" y="436" width="320" height="34" rx="17" fill="#00000022"/>
    <text x="800.0" y="459" text-anchor="middle" font-family="-apple-system,Helvetica,Arial,sans-serif" font-size="14" font-weight="600" fill="#ffffff" letter-spacing="0.3">FOTO PLATZHALTER · Massage &amp; Wellness</text>
  </g>
</svg>